<mxfile host="65bd71144e">
    <diagram id="8ObFd_kkKfOo9K47Kka7" name="Page-1">
        <mxGraphModel dx="7080" dy="4208" grid="1" gridSize="10" guides="1" tooltips="1" connect="1" arrows="1" fold="1" page="1" pageScale="1" pageWidth="3300" pageHeight="4681" background="none" math="0" shadow="0">
            <root>
                <mxCell id="0"/>
                <mxCell id="1" parent="0"/>
                <mxCell id="3" value="&lt;p style=&quot;line-height: 130%;&quot;&gt;&lt;font style=&quot;font-size: 32px;&quot;&gt;Client Layer (Frontend/User Interface)&lt;/font&gt;&lt;/p&gt;" style="swimlane;whiteSpace=wrap;html=1;strokeWidth=2;glass=0;rounded=0;resizeWidth=1;resizeHeight=1;shadow=0;startSize=73;" vertex="1" parent="1">
                    <mxGeometry x="530" y="660" width="1800" height="480" as="geometry"/>
                </mxCell>
                <mxCell id="5" value="Customer UI" style="rounded=0;whiteSpace=wrap;html=1;shadow=0;glass=0;sketch=0;strokeWidth=2;fontSize=32;startSize=73;" vertex="1" parent="3">
                    <mxGeometry x="91.25" y="120" width="330" height="150" as="geometry"/>
                </mxCell>
                <mxCell id="6" value="Staff UI" style="rounded=0;whiteSpace=wrap;html=1;shadow=0;glass=0;sketch=0;strokeWidth=2;fontSize=32;startSize=73;" vertex="1" parent="3">
                    <mxGeometry x="541.25" y="120" width="330" height="150" as="geometry"/>
                </mxCell>
                <mxCell id="7" value="Brand Partner UI" style="rounded=0;whiteSpace=wrap;html=1;shadow=0;glass=0;sketch=0;strokeWidth=2;fontSize=32;startSize=73;" vertex="1" parent="3">
                    <mxGeometry x="966.25" y="120" width="330" height="150" as="geometry"/>
                </mxCell>
                <mxCell id="8" value="Brand Partner UI" style="rounded=0;whiteSpace=wrap;html=1;shadow=0;glass=0;sketch=0;strokeWidth=2;fontSize=32;startSize=73;" vertex="1" parent="3">
                    <mxGeometry x="1378.75" y="120" width="330" height="150" as="geometry"/>
                </mxCell>
                <mxCell id="9" value="Sends Request (Login, Order, Inventory, Reports)" style="rounded=0;whiteSpace=wrap;html=1;shadow=0;glass=0;sketch=0;strokeWidth=2;fontSize=32;startSize=73;" vertex="1" parent="3">
                    <mxGeometry x="91.25" y="300" width="1620" height="150" as="geometry"/>
                </mxCell>
                <mxCell id="10" value="&lt;p style=&quot;line-height: 130%;&quot;&gt;&lt;span style=&quot;font-size: 32px;&quot;&gt;Application Layer (Backend/Business Logic)&lt;/span&gt;&lt;/p&gt;" style="swimlane;whiteSpace=wrap;html=1;strokeWidth=2;glass=0;rounded=0;resizeWidth=1;resizeHeight=1;shadow=0;startSize=73;" vertex="1" parent="1">
                    <mxGeometry x="735" y="1370" width="1390" height="700" as="geometry"/>
                </mxCell>
                <mxCell id="11" value="Authentication" style="rounded=0;whiteSpace=wrap;html=1;shadow=0;glass=0;sketch=0;strokeWidth=2;fontSize=32;startSize=73;" vertex="1" parent="10">
                    <mxGeometry x="92.5" y="120" width="330" height="150" as="geometry"/>
                </mxCell>
                <mxCell id="12" value="Order Proccessing" style="rounded=0;whiteSpace=wrap;html=1;shadow=0;glass=0;sketch=0;strokeWidth=2;fontSize=32;startSize=73;" vertex="1" parent="10">
                    <mxGeometry x="542.5" y="120" width="330" height="150" as="geometry"/>
                </mxCell>
                <mxCell id="13" value="Inventory Management" style="rounded=0;whiteSpace=wrap;html=1;shadow=0;glass=0;sketch=0;strokeWidth=2;fontSize=32;startSize=73;" vertex="1" parent="10">
                    <mxGeometry x="967.5" y="120" width="330" height="150" as="geometry"/>
                </mxCell>
                <mxCell id="14" value="Reports" style="rounded=0;whiteSpace=wrap;html=1;shadow=0;glass=0;sketch=0;strokeWidth=2;fontSize=32;startSize=73;" vertex="1" parent="10">
                    <mxGeometry x="542.5" y="300" width="330" height="150" as="geometry"/>
                </mxCell>
                <mxCell id="17" value="Alert/Notifications" style="rounded=0;whiteSpace=wrap;html=1;shadow=0;glass=0;sketch=0;strokeWidth=2;fontSize=32;startSize=73;" vertex="1" parent="10">
                    <mxGeometry x="92.5" y="300" width="330" height="150" as="geometry"/>
                </mxCell>
                <mxCell id="18" value="Audit Logging" style="rounded=0;whiteSpace=wrap;html=1;shadow=0;glass=0;sketch=0;strokeWidth=2;fontSize=32;startSize=73;" vertex="1" parent="10">
                    <mxGeometry x="967.5" y="300" width="330" height="150" as="geometry"/>
                </mxCell>
                <mxCell id="26" value="Process Request from Client Layer" style="rounded=0;whiteSpace=wrap;html=1;shadow=0;glass=0;sketch=0;strokeWidth=2;fontSize=32;startSize=73;" vertex="1" parent="10">
                    <mxGeometry x="92.5" y="510" width="1210" height="150" as="geometry"/>
                </mxCell>
                <mxCell id="16" value="" style="endArrow=classic;html=1;fontSize=32;startSize=73;entryX=0.5;entryY=0;entryDx=0;entryDy=0;exitX=0.5;exitY=1;exitDx=0;exitDy=0;endSize=12;" edge="1" parent="1" source="3" target="10">
                    <mxGeometry width="50" height="50" relative="1" as="geometry">
                        <mxPoint x="1140" y="1260" as="sourcePoint"/>
                        <mxPoint x="1190" y="1210" as="targetPoint"/>
                    </mxGeometry>
                </mxCell>
                <mxCell id="19" value="&lt;p style=&quot;line-height: 130%;&quot;&gt;&lt;font style=&quot;font-size: 32px;&quot;&gt;Database Layer&lt;/font&gt;&lt;/p&gt;" style="swimlane;whiteSpace=wrap;html=1;strokeWidth=2;glass=0;rounded=0;resizeWidth=1;resizeHeight=1;shadow=0;startSize=73;" vertex="1" parent="1">
                    <mxGeometry x="530" y="2400" width="1800" height="480" as="geometry"/>
                </mxCell>
                <mxCell id="20" value="User Accounts" style="rounded=0;whiteSpace=wrap;html=1;shadow=0;glass=0;sketch=0;strokeWidth=2;fontSize=32;startSize=73;" vertex="1" parent="19">
                    <mxGeometry x="91.25" y="120" width="330" height="150" as="geometry"/>
                </mxCell>
                <mxCell id="21" value="Orders Database" style="rounded=0;whiteSpace=wrap;html=1;shadow=0;glass=0;sketch=0;strokeWidth=2;fontSize=32;startSize=73;" vertex="1" parent="19">
                    <mxGeometry x="541.25" y="120" width="330" height="150" as="geometry"/>
                </mxCell>
                <mxCell id="22" value="Inventory" style="rounded=0;whiteSpace=wrap;html=1;shadow=0;glass=0;sketch=0;strokeWidth=2;fontSize=32;startSize=73;" vertex="1" parent="19">
                    <mxGeometry x="966.25" y="120" width="330" height="150" as="geometry"/>
                </mxCell>
                <mxCell id="23" value="Sales Database" style="rounded=0;whiteSpace=wrap;html=1;shadow=0;glass=0;sketch=0;strokeWidth=2;fontSize=32;startSize=73;" vertex="1" parent="19">
                    <mxGeometry x="1378.75" y="120" width="330" height="150" as="geometry"/>
                </mxCell>
                <mxCell id="24" value="Stores Data and Send Responses to Application Layer" style="rounded=0;whiteSpace=wrap;html=1;shadow=0;glass=0;sketch=0;strokeWidth=2;fontSize=32;startSize=73;" vertex="1" parent="19">
                    <mxGeometry x="91.25" y="300" width="1620" height="150" as="geometry"/>
                </mxCell>
                <mxCell id="25" value="" style="endArrow=classic;html=1;fontSize=32;startSize=73;entryX=0.5;entryY=0;entryDx=0;entryDy=0;endSize=12;" edge="1" parent="1">
                    <mxGeometry width="50" height="50" relative="1" as="geometry">
                        <mxPoint x="1440" y="2070" as="sourcePoint"/>
                        <mxPoint x="1440" y="2400" as="targetPoint"/>
                    </mxGeometry>
                </mxCell>
            </root>
        </mxGraphModel>
    </diagram>
</mxfile>